<svg width="64" height="64" viewBox="0 0 64 64" fill="none" xmlns="http://www.w3.org/2000/svg">
<path d="M22.4441 56.5612C22.4441 55.1785 22.4441 54.4871 22.5748 53.9123C23.1116 51.5514 25.221 49.7061 27.9195 49.2366C28.5767 49.1221 29.3668 49.1221 30.9474 49.1221C32.5279 49.1221 33.318 49.1221 33.975 49.2366C36.6738 49.7061 38.7832 51.5514 39.32 53.9123C39.4507 54.4871 39.4507 55.1785 39.4507 56.5612V59.0408C39.4507 60.8946 39.4507 61.8217 38.9948 62.5121C38.6964 62.9646 38.267 63.3401 37.7499 63.6013C36.9606 64 35.9011 64 33.7817 64H28.113C25.9937 64 24.934 64 24.1447 63.6013C23.6277 63.3401 23.1983 62.9646 22.8998 62.5121C22.4441 61.8217 22.4441 60.8946 22.4441 59.0408V56.5612Z" fill="#110F0D" style="fill:#110F0D;fill:color(display-p3 0.0667 0.0588 0.0510);fill-opacity:1;"/>
<path d="M9.70504 63.9993H15.5323C16.1921 63.9993 16.522 63.9993 16.6922 63.8158C16.8623 63.6323 16.791 63.3365 16.6485 62.7446C12.9914 37.0596 38.7008 45.1279 40.742 28.5716C42.1402 17.2307 34.735 17.0939 37.5238 1.63526C37.564 0.673772 37.5842 0.193031 37.2871 0.044027C36.9898 -0.104977 36.5606 0.134083 35.702 0.612203C23.5732 7.36603 14.7343 20.2768 17.9646 28.1981C18.4585 29.4091 18.7054 30.0145 18.3931 30.2356C18.0809 30.4568 17.5525 30.1716 16.4957 29.6016C14.7773 28.6748 12.7351 27.1573 11.3155 24.7663C10.899 24.0649 10.6907 23.7141 10.3852 23.6877C10.0796 23.6612 9.81705 23.9471 9.29196 24.5188C-5.96913 41.1359 0.215236 57.7302 9.02947 63.7994C9.17011 63.8962 9.24045 63.9447 9.3306 63.972C9.42072 63.9993 9.5155 63.9993 9.70504 63.9993Z" fill="#110F0D" style="fill:#110F0D;fill:color(display-p3 0.0667 0.0588 0.0510);fill-opacity:1;"/>
<path d="M47.4852 25.0103C48.3043 32.2661 42.7988 40.3106 36.5104 43.7487C35.4126 44.3488 34.8637 44.6489 34.9111 44.9348C34.9586 45.2207 35.6147 45.4059 36.9267 45.7763C45.3113 48.1427 47.67 56.3034 44.9981 62.9856C44.9571 63.462 44.9365 63.7004 45.1129 63.85C45.289 63.9996 45.5886 63.9996 46.1875 63.9996H51.425C51.5836 63.9996 51.663 63.9996 51.7399 63.9829C51.8168 63.9662 51.8849 63.9345 52.0211 63.8707C71.5953 52.7114 64.6526 33.41 49.2619 24.1038C48.427 23.5989 48.0095 23.3466 47.67 23.4951C47.3308 23.6438 47.3823 24.0993 47.4852 25.0103Z" fill="#110F0D" style="fill:#110F0D;fill:color(display-p3 0.0667 0.0588 0.0510);fill-opacity:1;"/>
</svg>
